<svg width="113" height="23" viewBox="0 0 113 23" fill="none" xmlns="http://www.w3.org/2000/svg">
<path d="M13.352 15.94C13.352 16.068 13.272 16.236 13.112 16.444C12.968 16.636 12.76 16.828 12.488 17.02C12.232 17.212 11.928 17.38 11.576 17.524C11.24 17.668 10.88 17.74 10.496 17.74C9.904 17.74 9.384 17.556 8.936 17.188C8.488 16.804 8.08 16.284 7.712 15.628C7.36 14.972 7.032 14.196 6.728 13.3C6.424 12.388 6.112 11.404 5.792 10.348L4.88 10.948L4.424 17.14C4.408 17.268 4.376 17.364 4.328 17.428C4.28 17.476 4.184 17.5 4.04 17.5H2.72C1.808 17.5 1.16 17.324 0.776 16.972C0.408 16.604 0.224 16.068 0.224 15.364C0.224 15.14 0.232 14.804 0.248 14.356C0.28 13.892 0.32 13.356 0.368 12.748C0.416 12.124 0.464 11.444 0.512 10.708C0.576 9.972 0.64 9.22 0.704 8.452C0.816 6.916 0.904 5.7 0.968 4.804C1.048 3.908 1.104 3.204 1.136 2.692C1.168 2.164 1.192 1.78 1.208 1.54C1.224 1.284 1.232 1.044 1.232 0.819999C1.232 0.579999 1.36 0.459999 1.616 0.459999H2.936C3.448 0.459999 3.856 0.515999 4.16 0.628C4.48 0.724 4.728 0.867999 4.904 1.06C5.08 1.252 5.2 1.492 5.264 1.78C5.328 2.052 5.36 2.372 5.36 2.74C5.36 3.108 5.336 3.708 5.288 4.54C5.256 5.356 5.2 6.276 5.12 7.3C5.664 6.628 6.312 5.796 7.064 4.804C7.832 3.812 8.76 2.588 9.848 1.132C9.896 1.068 9.96 0.987999 10.04 0.891999C10.136 0.779999 10.232 0.675999 10.328 0.579999C10.44 0.483999 10.552 0.403999 10.664 0.339999C10.792 0.259999 10.912 0.219999 11.024 0.219999C11.232 0.219999 11.472 0.331999 11.744 0.555999C12.016 0.763999 12.272 1.028 12.512 1.348C12.752 1.652 12.952 1.972 13.112 2.308C13.288 2.628 13.376 2.9 13.376 3.124C13.376 3.588 12.96 4.284 12.128 5.212C11.296 6.124 10.104 7.18 8.552 8.38C8.824 8.844 9.136 9.348 9.488 9.892C9.84 10.42 10.192 10.964 10.544 11.524C10.896 12.068 11.24 12.604 11.576 13.132C11.912 13.644 12.208 14.108 12.464 14.524C12.736 14.924 12.952 15.252 13.112 15.508C13.272 15.764 13.352 15.908 13.352 15.94ZM19.8913 17.74C18.7873 17.74 17.8673 17.588 17.1313 17.284C16.4113 16.964 15.8353 16.532 15.4033 15.988C14.9713 15.444 14.6673 14.812 14.4913 14.092C14.3153 13.356 14.2273 12.572 14.2273 11.74C14.2273 10.78 14.3393 9.844 14.5633 8.932C14.8033 8.004 15.2033 7.18 15.7633 6.46C16.3233 5.74 17.0593 5.164 17.9713 4.732C18.8993 4.284 20.0513 4.06 21.4273 4.06C23.4433 4.06 24.8833 4.556 25.7473 5.548C26.6273 6.524 27.0673 7.9 27.0673 9.676C27.0673 10.172 27.0273 10.724 26.9473 11.332C26.8833 11.924 26.7473 12.516 26.5393 13.108C26.3473 13.7 26.0753 14.276 25.7233 14.836C25.3873 15.396 24.9553 15.892 24.4273 16.324C23.8993 16.756 23.2593 17.1 22.5073 17.356C21.7713 17.612 20.8993 17.74 19.8913 17.74ZM21.0193 7.252C20.4113 7.252 19.9233 7.412 19.5553 7.732C19.2033 8.036 18.9313 8.412 18.7393 8.86C18.5633 9.292 18.4433 9.756 18.3793 10.252C18.3313 10.732 18.3073 11.14 18.3073 11.476C18.3073 12.532 18.4753 13.308 18.8113 13.804C19.1473 14.3 19.6273 14.548 20.2513 14.548C20.8113 14.548 21.2673 14.372 21.6193 14.02C21.9873 13.668 22.2673 13.244 22.4593 12.748C22.6673 12.252 22.8033 11.732 22.8673 11.188C22.9473 10.644 22.9873 10.188 22.9873 9.82C22.9873 9.02 22.8353 8.396 22.5313 7.948C22.2433 7.484 21.7393 7.252 21.0193 7.252ZM37.043 15.388C37.043 15.036 37.067 14.58 37.115 14.02C37.179 13.444 37.235 12.844 37.283 12.22C37.347 11.58 37.403 10.964 37.451 10.372C37.515 9.78 37.547 9.284 37.547 8.884C37.547 8.468 37.443 8.1 37.235 7.78C37.043 7.444 36.659 7.276 36.083 7.276C35.523 7.276 35.059 7.412 34.691 7.684C34.323 7.956 34.011 8.452 33.755 9.172C33.515 9.892 33.315 10.884 33.155 12.148C32.995 13.412 32.843 15.036 32.699 17.02C32.683 17.212 32.643 17.34 32.579 17.404C32.515 17.468 32.379 17.5 32.171 17.5H31.307C30.811 17.5 30.403 17.452 30.083 17.356C29.779 17.244 29.531 17.092 29.339 16.9C29.163 16.708 29.035 16.476 28.955 16.204C28.891 15.916 28.859 15.588 28.859 15.22C28.859 14.98 28.867 14.644 28.883 14.212C28.915 13.764 28.963 13.156 29.027 12.388C29.091 11.604 29.163 10.62 29.243 9.436C29.339 8.236 29.451 6.756 29.579 4.996C29.595 4.644 29.635 4.436 29.699 4.372C29.747 4.324 29.875 4.3 30.083 4.3H31.019C31.499 4.3 31.891 4.356 32.195 4.468C32.515 4.58 32.771 4.732 32.963 4.924C33.155 5.1 33.291 5.316 33.371 5.572C33.451 5.812 33.499 6.06 33.515 6.316C34.011 5.468 34.579 4.884 35.219 4.564C35.859 4.228 36.659 4.06 37.619 4.06C38.291 4.06 38.875 4.132 39.371 4.276C39.867 4.42 40.275 4.668 40.595 5.02C40.931 5.356 41.179 5.804 41.339 6.364C41.499 6.908 41.579 7.588 41.579 8.404C41.579 8.66 41.563 9.028 41.531 9.508C41.499 9.988 41.459 10.516 41.411 11.092C41.363 11.652 41.307 12.244 41.243 12.868C41.195 13.476 41.147 14.044 41.099 14.572C41.051 15.1 41.011 15.564 40.979 15.964C40.947 16.364 40.931 16.628 40.931 16.756C40.931 17.108 40.891 17.324 40.811 17.404C40.731 17.468 40.555 17.5 40.283 17.5H39.515C39.003 17.5 38.587 17.452 38.267 17.356C37.947 17.26 37.699 17.124 37.523 16.948C37.347 16.772 37.219 16.556 37.139 16.3C37.075 16.028 37.043 15.724 37.043 15.388ZM51.5664 14.668C51.1664 15.388 50.6784 15.924 50.1024 16.276C49.5264 16.612 48.8064 16.78 47.9424 16.78C47.2864 16.78 46.6864 16.676 46.1424 16.468C45.5984 16.26 45.1344 15.932 44.7504 15.484C44.3664 15.036 44.0624 14.476 43.8384 13.804C43.6304 13.116 43.5264 12.3 43.5264 11.356C43.5264 10.588 43.6064 9.78 43.7664 8.932C43.9264 8.068 44.2144 7.276 44.6304 6.556C45.0624 5.836 45.6464 5.244 46.3824 4.78C47.1184 4.3 48.0624 4.06 49.2144 4.06C49.6944 4.06 50.1024 4.116 50.4384 4.228C50.7904 4.324 51.0864 4.46 51.3264 4.636C51.5824 4.812 51.7824 5.02 51.9264 5.26C52.0864 5.5 52.2064 5.756 52.2864 6.028C52.2864 6.044 52.2864 5.988 52.2864 5.86C52.3024 5.716 52.3184 5.556 52.3344 5.38C52.3504 5.204 52.3584 5.036 52.3584 4.876C52.3744 4.7 52.3824 4.588 52.3824 4.54C52.3984 4.38 52.5024 4.3 52.6944 4.3H53.7984C54.6304 4.3 55.2304 4.476 55.5984 4.828C55.9824 5.164 56.1744 5.812 56.1744 6.772C56.1744 6.9 56.1664 7.196 56.1504 7.66C56.1344 8.108 56.1024 8.652 56.0544 9.292C56.0224 9.932 55.9744 10.644 55.9104 11.428C55.8464 12.196 55.7744 12.972 55.6944 13.756C55.6144 14.54 55.5264 15.292 55.4304 16.012C55.3344 16.732 55.2304 17.364 55.1184 17.908C55.0064 18.452 54.8144 18.98 54.5424 19.492C54.2704 20.004 53.8864 20.46 53.3904 20.86C52.8944 21.26 52.2544 21.58 51.4704 21.82C50.7024 22.06 49.7584 22.18 48.6384 22.18C47.7904 22.18 47.0464 22.1 46.4064 21.94C45.7824 21.78 45.2624 21.564 44.8464 21.292C44.4304 21.036 44.1104 20.74 43.8864 20.404C43.6784 20.068 43.5744 19.732 43.5744 19.396C43.5744 19.092 43.6384 18.828 43.7664 18.604C43.8944 18.38 44.0624 18.196 44.2704 18.052C44.4784 17.908 44.7024 17.796 44.9424 17.716C45.1984 17.652 45.4384 17.62 45.6624 17.62C45.9344 17.62 46.1344 17.7 46.2624 17.86C46.3904 18.02 46.5344 18.196 46.6944 18.388C46.8544 18.596 47.0784 18.78 47.3664 18.94C47.6544 19.1 48.1024 19.18 48.7104 19.18C49.7664 19.18 50.5024 18.788 50.9184 18.004C51.3504 17.236 51.5664 16.124 51.5664 14.668ZM49.5504 13.588C50.1264 13.588 50.5744 13.452 50.8944 13.18C51.2304 12.908 51.4864 12.58 51.6624 12.196C51.8384 11.812 51.9504 11.412 51.9984 10.996C52.0464 10.58 52.0704 10.22 52.0704 9.916C52.0704 8.956 51.9184 8.276 51.6144 7.876C51.3264 7.46 50.8864 7.252 50.2944 7.252C49.7024 7.252 49.2384 7.412 48.9024 7.732C48.5664 8.052 48.3104 8.436 48.1344 8.884C47.9744 9.316 47.8704 9.756 47.8224 10.204C47.7744 10.636 47.7504 10.972 47.7504 11.212C47.7504 12.012 47.8864 12.612 48.1584 13.012C48.4304 13.396 48.8944 13.588 49.5504 13.588ZM68.6128 7.54C68.5648 8.148 68.5088 8.748 68.4448 9.34C68.3968 9.932 68.3488 10.492 68.3008 11.02C68.2528 11.548 68.2128 12.02 68.1808 12.436C68.1648 12.852 68.1568 13.172 68.1568 13.396C68.1568 13.812 68.2048 14.092 68.3008 14.236C68.3968 14.364 68.5568 14.428 68.7808 14.428C68.9568 14.428 69.1088 14.396 69.2368 14.332C69.3648 14.268 69.4848 14.196 69.5968 14.116C69.7088 14.036 69.8048 13.964 69.8848 13.9C69.9808 13.836 70.0848 13.804 70.1968 13.804C70.3088 13.804 70.4128 13.868 70.5088 13.996C70.6048 14.124 70.6528 14.42 70.6528 14.884C70.6528 15.764 70.4128 16.46 69.9328 16.972C69.4528 17.484 68.6288 17.74 67.4608 17.74C66.3088 17.74 65.4528 17.476 64.8928 16.948C64.3488 16.404 64.0768 15.58 64.0768 14.476C64.0768 14.236 64.0848 13.956 64.1008 13.636C64.1328 13.3 64.1728 12.868 64.2208 12.34C64.2688 11.812 64.3248 11.164 64.3888 10.396C64.4688 9.628 64.5488 8.676 64.6288 7.54H63.3568C63.2288 7.54 63.1488 7.516 63.1168 7.468C63.1008 7.404 63.0928 7.316 63.0928 7.204L63.1648 5.98C63.1808 5.772 63.2048 5.572 63.2368 5.38C63.2848 5.172 63.3648 4.988 63.4768 4.828C63.6048 4.668 63.7808 4.54 64.0048 4.444C64.2288 4.348 64.5248 4.3 64.8928 4.3C65.0048 4.012 65.1328 3.668 65.2768 3.268C65.4208 2.868 65.5648 2.484 65.7088 2.116C65.8528 1.732 65.9888 1.412 66.1168 1.156C66.2608 0.899999 66.3888 0.771999 66.5008 0.771999H67.1968C67.8688 0.771999 68.3328 0.98 68.5888 1.396C68.8448 1.812 68.9728 2.308 68.9728 2.884C68.9728 3.204 68.9488 3.676 68.9008 4.3H71.4208C71.6768 4.3 71.8048 4.412 71.8048 4.636L71.7088 5.932C71.6768 6.412 71.5408 6.804 71.3008 7.108C71.0768 7.396 70.6048 7.54 69.8848 7.54H68.6128ZM78.2506 17.74C77.1466 17.74 76.2266 17.588 75.4906 17.284C74.7706 16.964 74.1946 16.532 73.7626 15.988C73.3306 15.444 73.0266 14.812 72.8506 14.092C72.6746 13.356 72.5866 12.572 72.5866 11.74C72.5866 10.78 72.6986 9.844 72.9226 8.932C73.1626 8.004 73.5626 7.18 74.1226 6.46C74.6826 5.74 75.4186 5.164 76.3306 4.732C77.2586 4.284 78.4106 4.06 79.7866 4.06C81.8026 4.06 83.2426 4.556 84.1066 5.548C84.9866 6.524 85.4266 7.9 85.4266 9.676C85.4266 10.172 85.3866 10.724 85.3066 11.332C85.2426 11.924 85.1066 12.516 84.8986 13.108C84.7066 13.7 84.4346 14.276 84.0826 14.836C83.7466 15.396 83.3146 15.892 82.7866 16.324C82.2586 16.756 81.6186 17.1 80.8666 17.356C80.1306 17.612 79.2586 17.74 78.2506 17.74ZM79.3786 7.252C78.7706 7.252 78.2826 7.412 77.9146 7.732C77.5626 8.036 77.2906 8.412 77.0986 8.86C76.9226 9.292 76.8026 9.756 76.7386 10.252C76.6906 10.732 76.6666 11.14 76.6666 11.476C76.6666 12.532 76.8346 13.308 77.1706 13.804C77.5066 14.3 77.9866 14.548 78.6106 14.548C79.1706 14.548 79.6266 14.372 79.9786 14.02C80.3466 13.668 80.6266 13.244 80.8186 12.748C81.0266 12.252 81.1626 11.732 81.2266 11.188C81.3066 10.644 81.3466 10.188 81.3466 9.82C81.3466 9.02 81.1946 8.396 80.8906 7.948C80.6026 7.484 80.0986 7.252 79.3786 7.252ZM91.8024 6.34C91.8024 6.676 91.7704 7.148 91.7064 7.756C91.6584 8.364 91.6024 8.996 91.5384 9.652C91.4904 10.308 91.4344 10.924 91.3704 11.5C91.3224 12.076 91.2984 12.492 91.2984 12.748C91.2984 13.308 91.4344 13.748 91.7064 14.068C91.9944 14.372 92.3864 14.524 92.8824 14.524C93.3144 14.524 93.6744 14.356 93.9624 14.02C94.2664 13.668 94.5064 13.22 94.6824 12.676C94.8744 12.116 95.0264 11.484 95.1384 10.78C95.2504 10.076 95.3304 9.364 95.3784 8.644C95.4424 7.924 95.4904 7.228 95.5224 6.556C95.5704 5.868 95.6184 5.276 95.6664 4.78C95.6824 4.652 95.7304 4.54 95.8104 4.444C95.8904 4.348 96.0184 4.3 96.1944 4.3H97.0584C97.5544 4.3 97.9544 4.356 98.2584 4.468C98.5784 4.564 98.8264 4.708 99.0024 4.9C99.1944 5.092 99.3224 5.332 99.3864 5.62C99.4664 5.892 99.5064 6.212 99.5064 6.58C99.5064 6.82 99.4904 7.164 99.4584 7.612C99.4424 8.044 99.4024 8.652 99.3384 9.436C99.2744 10.204 99.1944 11.188 99.0984 12.388C99.0184 13.572 98.9144 15.044 98.7864 16.804C98.7544 17.14 98.7144 17.34 98.6664 17.404C98.6344 17.468 98.5064 17.5 98.2824 17.5H97.3464C96.8664 17.5 96.4664 17.444 96.1464 17.332C95.8424 17.22 95.5944 17.076 95.4024 16.9C95.2104 16.724 95.0744 16.516 94.9944 16.276C94.9144 16.036 94.8664 15.788 94.8504 15.532C94.6104 15.948 94.3384 16.3 94.0344 16.588C93.7464 16.876 93.4424 17.108 93.1224 17.284C92.8024 17.444 92.4744 17.556 92.1384 17.62C91.8024 17.7 91.4744 17.74 91.1544 17.74C90.5464 17.74 90.0024 17.644 89.5224 17.452C89.0424 17.244 88.6344 16.972 88.2984 16.636C87.9784 16.3 87.7304 15.9 87.5544 15.436C87.3784 14.972 87.2904 14.476 87.2904 13.948C87.2904 13.74 87.2984 13.404 87.3144 12.94C87.3464 12.46 87.3784 11.924 87.4104 11.332C87.4584 10.74 87.5064 10.116 87.5544 9.46C87.6024 8.788 87.6424 8.156 87.6744 7.564C87.7224 6.972 87.7624 6.452 87.7944 6.004C87.8424 5.556 87.8744 5.236 87.8904 5.044C87.9224 4.756 87.9864 4.564 88.0824 4.468C88.1784 4.356 88.3384 4.3 88.5624 4.3H89.3304C89.8264 4.3 90.2344 4.348 90.5544 4.444C90.8744 4.54 91.1224 4.676 91.2984 4.852C91.4904 5.028 91.6184 5.244 91.6824 5.5C91.7624 5.74 91.8024 6.02 91.8024 6.34ZM109.361 10.036C109.265 10.036 109.153 10.036 109.025 10.036C108.913 10.02 108.801 10.004 108.689 9.988C108.577 9.956 108.481 9.924 108.401 9.892C108.321 9.844 108.281 9.788 108.281 9.724C108.281 9.516 108.289 9.324 108.305 9.148C108.321 8.972 108.329 8.788 108.329 8.596C108.329 8.244 108.281 7.956 108.185 7.732C108.089 7.508 107.897 7.396 107.609 7.396C107.161 7.396 106.785 7.692 106.481 8.284C106.193 8.86 106.009 9.732 105.929 10.9C105.897 11.412 105.849 11.996 105.785 12.652C105.737 13.292 105.689 13.916 105.641 14.524C105.593 15.116 105.553 15.644 105.521 16.108C105.489 16.572 105.473 16.876 105.473 17.02C105.473 17.18 105.417 17.3 105.305 17.38C105.193 17.46 105.073 17.5 104.945 17.5H104.081C103.585 17.5 103.177 17.452 102.857 17.356C102.553 17.244 102.305 17.092 102.113 16.9C101.937 16.708 101.809 16.476 101.729 16.204C101.665 15.916 101.633 15.588 101.633 15.22C101.633 14.98 101.641 14.644 101.657 14.212C101.689 13.764 101.737 13.156 101.801 12.388C101.865 11.604 101.937 10.62 102.017 9.436C102.113 8.236 102.225 6.756 102.353 4.996C102.385 4.532 102.553 4.3 102.857 4.3H103.793C104.241 4.3 104.617 4.348 104.921 4.444C105.225 4.54 105.473 4.676 105.665 4.852C105.857 5.012 105.993 5.204 106.073 5.428C106.169 5.652 106.233 5.884 106.265 6.124C106.457 5.756 106.681 5.444 106.937 5.188C107.209 4.916 107.489 4.7 107.777 4.54C108.065 4.364 108.361 4.244 108.665 4.18C108.969 4.1 109.249 4.06 109.505 4.06C109.809 4.06 110.113 4.116 110.417 4.228C110.737 4.34 111.025 4.508 111.281 4.732C111.537 4.956 111.737 5.244 111.881 5.596C112.041 5.948 112.121 6.364 112.121 6.844C112.121 7.276 112.057 7.684 111.929 8.068C111.801 8.452 111.617 8.796 111.377 9.1C111.137 9.388 110.841 9.62 110.489 9.796C110.153 9.956 109.777 10.036 109.361 10.036Z" fill="black"/>
</svg>
